<svg width="24" height="24" xmlns="http://www.w3.org/2000/svg">

 <g>
  <title>background</title>
  <rect fill="none" id="canvas_background" height="602" width="802" y="-1" x="-1"/>
 </g>
 <g>
  <title>Layer 1</title>
  <path stroke="#61dbfb" fill="#ffffff" id="svg_1" d="m21.5,20l-2,0c-0.276,0 -0.5,-0.224 -0.5,-0.5s0.224,-0.5 0.5,-0.5l2,0c0.827,0 1.5,-0.673 1.5,-1.5l0,-11c0,-0.827 -0.673,-1.5 -1.5,-1.5l-11.5,0c-0.133,0 -0.26,-0.053 -0.354,-0.146l-1.853,-1.854l-5.293,0c-0.827,0 -1.5,0.673 -1.5,1.5l0,13c0,0.827 0.673,1.5 1.5,1.5l2,0c0.276,0 0.5,0.224 0.5,0.5s-0.224,0.5 -0.5,0.5l-2,0c-1.379,0 -2.5,-1.122 -2.5,-2.5l0,-13c0,-1.378 1.121,-2.5 2.5,-2.5l5.5,0c0.133,0 0.26,0.053 0.354,0.146l1.853,1.854l11.293,0c1.379,0 2.5,1.122 2.5,2.5l0,11c0,1.378 -1.121,2.5 -2.5,2.5z"/>
  <path stroke="#61dbfb" fill="#ffffff" id="svg_2" d="m12,18.75c-0.276,0 -0.5,-0.224 -0.5,-0.5l0,-7.75c0,-0.276 0.224,-0.5 0.5,-0.5s0.5,0.224 0.5,0.5l0,7.75c0,0.277 -0.224,0.5 -0.5,0.5z"/>
  <path stroke="#61dbfb" fill="#ffffff" id="svg_3" d="m12,19c-0.128,0 -0.256,-0.049 -0.354,-0.146l-2.5,-2.5c-0.195,-0.195 -0.195,-0.512 0,-0.707s0.512,-0.195 0.707,0l2.147,2.146l2.146,-2.146c0.195,-0.195 0.512,-0.195 0.707,0s0.195,0.512 0,0.707l-2.5,2.5c-0.097,0.097 -0.225,0.146 -0.353,0.146z"/>
  <path stroke="#61dbfb" fill="#ffffff" id="svg_4" d="m15.5,22l-7,0c-0.827,0 -1.5,-0.673 -1.5,-1.5l0,-2c0,-0.276 0.224,-0.5 0.5,-0.5s0.5,0.224 0.5,0.5l0,2c0,0.276 0.225,0.5 0.5,0.5l7,0c0.275,0 0.5,-0.224 0.5,-0.5l0,-2c0,-0.276 0.224,-0.5 0.5,-0.5s0.5,0.224 0.5,0.5l0,2c0,0.827 -0.673,1.5 -1.5,1.5z"/>
 </g>
</svg>